<?xml version="1.0" standalone="no"?>
<!DOCTYPE svg PUBLIC "-//W3C//DTD SVG 20010904//EN"
 "http://www.w3.org/TR/2001/REC-SVG-20010904/DTD/svg10.dtd">
<svg version="1.0" xmlns="http://www.w3.org/2000/svg"
 width="520.000000pt" height="520.000000pt" viewBox="0 0 520.000000 520.000000"
 preserveAspectRatio="xMidYMid meet">
<metadata>
Created by potrace 1.11, written by Peter Selinger 2001-2013
</metadata>
<g transform="translate(0.000000,520.000000) scale(0.100000,-0.100000)"
fill="#000000" stroke="none">
<path d="M0 2600 l0 -2600 2600 0 2600 0 0 2600 0 2600 -2600 0 -2600 0 0
-2600z m2260 150 l0 -1650 -279 0 c-258 0 -280 1 -285 18 -2 9 -10 63 -16 120
-7 56 -14 102 -16 102 -1 0 -27 -25 -55 -56 -149 -157 -352 -233 -589 -221
-140 7 -208 25 -325 82 -279 138 -462 442 -516 860 -17 136 -15 440 5 568 52
336 187 587 399 743 113 84 231 126 396 143 234 25 430 -37 588 -183 l63 -58
0 591 0 591 315 0 315 0 0 -1650z m1700 1505 c545 -87 892 -431 986 -978 9
-49 13 -95 10 -103 -5 -12 -56 -14 -323 -12 l-318 3 -12 75 c-47 283 -153 415
-383 477 -93 25 -323 25 -405 -1 -98 -29 -171 -74 -238 -145 -102 -109 -165
-265 -199 -498 -18 -122 -18 -694 0 -828 48 -352 165 -539 388 -622 57 -21 92
-26 199 -30 353 -14 543 107 615 391 11 44 20 93 20 110 0 58 -11 57 336 54
l319 -3 -3 -50 c-5 -77 -46 -251 -81 -341 -91 -236 -286 -445 -524 -562 -353
-174 -876 -182 -1220 -19 -374 177 -612 525 -696 1017 -32 187 -42 568 -20
786 69 712 455 1177 1059 1279 107 18 375 18 490 0z"/>
<path d="M1093 2941 c-185 -63 -277 -235 -305 -568 -24 -288 25 -537 134 -676
134 -169 438 -184 610 -29 23 20 54 57 70 81 l28 45 0 469 0 469 -36 54 c-55
82 -128 134 -229 160 -72 20 -209 17 -272 -5z"/>
</g>
</svg>
